<svg width="36" height="36" viewBox="0 0 36 36" fill="none" xmlns="http://www.w3.org/2000/svg">
<path id="Icon awesome-arrow-circle-down" d="M18.3125 0.530518C8.67969 0.530518 0.875 8.33521 0.875 17.968C0.875 27.6008 8.67969 35.4055 18.3125 35.4055C27.9453 35.4055 35.75 27.6008 35.75 17.968C35.75 8.33521 27.9453 0.530518 18.3125 0.530518ZM20.3445 10.6274L15.0359 15.718H27.875C28.8102 15.718 29.5625 16.4704 29.5625 17.4055V18.5305C29.5625 19.4657 28.8102 20.218 27.875 20.218H15.0359L20.3445 25.3086C21.0266 25.9625 21.0406 27.0524 20.3727 27.7204L19.5992 28.4868C18.9383 29.1477 17.8695 29.1477 17.2156 28.4868L7.88516 19.1633C7.22422 18.5024 7.22422 17.4336 7.88516 16.7797L17.2156 7.44927C17.8766 6.78833 18.9453 6.78833 19.5992 7.44927L20.3727 8.21567C21.0406 8.88364 21.0266 9.97349 20.3445 10.6274Z" fill="#7B3031"/>
</svg>
