<svg width="36" height="36" viewBox="0 0 36 36" fill="none" xmlns="http://www.w3.org/2000/svg">
<path d="M17.9375 0.530518C27.5703 0.530518 35.375 8.33521 35.375 17.968C35.375 27.6008 27.5703 35.4055 17.9375 35.4055C8.30469 35.4055 0.5 27.6008 0.5 17.968C0.5 8.33521 8.30469 0.530518 17.9375 0.530518ZM15.9055 10.6274L21.2141 15.718H8.375C7.43984 15.718 6.6875 16.4704 6.6875 17.4055V18.5305C6.6875 19.4657 7.43984 20.218 8.375 20.218H21.2141L15.9055 25.3086C15.2234 25.9625 15.2094 27.0524 15.8773 27.7204L16.6508 28.4868C17.3117 29.1477 18.3805 29.1477 19.0344 28.4868L28.3648 19.1633C29.0258 18.5024 29.0258 17.4336 28.3648 16.7797L19.0344 7.44927C18.3734 6.78833 17.3047 6.78833 16.6508 7.44927L15.8773 8.21567C15.2094 8.88364 15.2234 9.97349 15.9055 10.6274Z" fill="#7B3031"/>
</svg>
