<svg width="40" height="44" viewBox="0 0 40 44" fill="none" xmlns="http://www.w3.org/2000/svg">
<g id="filter-icon 1" clip-path="url(#clip0_281_81)">
<path id="Vector" fill-rule="evenodd" clip-rule="evenodd" d="M27.7382 23.4681C25.4841 26.2112 24.3408 27.9865 24.4841 31.7893V38.3756C24.4343 38.699 24.3064 39.0353 24.0438 39.4216L16.7665 43.8032C16.315 44.2436 15.4652 43.9073 15.4652 43.1512V31.748C15.3339 29.1263 15.1056 27.5014 13.8979 25.6581C11.521 22.7705 1.21288 11.3329 0.117597 9.16527C0.0405771 9.03698 -7.96306e-05 8.89007 1.17093e-07 8.74035V4.40082H0.00257522C0.00257522 4.33201 0.0111589 4.2632 0.0291847 4.19352C0.860086 0.998871 11.8652 -0.224283 22.0652 0.0337662C25.333 0.116342 28.5064 0.335684 31.2103 0.674589C33.97 1.02124 36.2884 1.49777 37.788 2.08784C39.2979 2.68307 40.1133 3.47442 39.9871 4.47738L39.9888 8.70681C39.9957 8.87196 39.9528 9.04055 39.8567 9.1885C37.6575 12.5922 30.7811 19.7651 27.7382 23.4681ZM39.1674 8.74035L39.1657 4.40082C39.8103 0.169672 2.2 -0.88575 0.824893 4.40082V8.74035C3.097 13.7044 35.3777 14.6032 39.1674 8.74035ZM19.9991 1.97C30.7614 1.97 36.5991 3.12348 36.5991 4.54705C36.5991 5.96976 30.7614 7.1241 19.9991 7.1241C9.23691 7.1241 3.39914 5.96976 3.39914 4.54705C3.39914 3.12348 9.23691 1.97 19.9991 1.97Z" fill="#7B3031"/>
</g>
<defs>
<clipPath id="clip0_281_81">
<rect width="40" height="44" fill="white"/>
</clipPath>
</defs>
</svg>
